<svg width="12" height="11" viewBox="0 0 12 11" fill="none" xmlns="http://www.w3.org/2000/svg">
<g clip-path="url(#clip0)">
<path d="M11.002 3.57287L7.95826 3.12912L6.59785 0.370792C6.3541 -0.120874 5.64784 -0.127124 5.40201 0.370792L4.04159 3.12912L0.997845 3.57287C0.452012 3.65204 0.233262 4.32495 0.629095 4.71037L2.83118 6.8562L2.31035 9.88744C2.2166 10.4354 2.79368 10.8458 3.27701 10.5895L5.99993 9.15828L8.72285 10.5895C9.20618 10.8437 9.78326 10.4354 9.68951 9.88744L9.16868 6.8562L11.3708 4.71037C11.7666 4.32495 11.5478 3.65204 11.002 3.57287ZM8.09576 6.5062L8.58951 9.38953L5.99993 8.02911L3.41034 9.38953L3.90409 6.5062L1.80826 4.46454L4.70409 4.0437L5.99993 1.41871L7.29576 4.0437L10.1916 4.46454L8.09576 6.5062Z" fill="white"/>
</g>
<defs>
<clipPath id="clip0">
<rect width="12" height="10.6667" fill="white"/>
</clipPath>
</defs>
</svg>
